<svg width="25" height="25" viewBox="0 0 25 25" fill="none" xmlns="http://www.w3.org/2000/svg">
<g id="message-chat-circle">
<path id="Icon" d="M6.69815 11.3042C6.63566 10.9037 6.60307 10.4933 6.60272 10.0755C6.59904 5.65721 10.2013 2.07248 14.6487 2.06877C19.096 2.06506 22.7043 5.64377 22.708 10.062C22.7088 11.0601 22.5256 12.0157 22.1903 12.897C22.1206 13.08 22.0858 13.1715 22.07 13.243C22.0544 13.3138 22.0484 13.3636 22.0467 13.4361C22.045 13.5092 22.055 13.5898 22.075 13.7509L22.4803 17.0208C22.5242 17.3747 22.5461 17.5517 22.4873 17.6805C22.4358 17.7932 22.3443 17.8829 22.2304 17.932C22.1005 17.988 21.924 17.9622 21.571 17.9108L18.3854 17.4466C18.219 17.4223 18.1359 17.4102 18.0601 17.4107C17.9852 17.4112 17.9334 17.4168 17.8601 17.4322C17.786 17.4479 17.6913 17.4834 17.502 17.5545C16.619 17.8861 15.6618 18.0679 14.662 18.0688C14.2438 18.0691 13.8331 18.0378 13.432 17.9771M8.24435 22.0741C11.2092 22.0716 13.6107 19.6072 13.6082 16.5696C13.6056 13.5321 11.2001 11.0717 8.23517 11.0741C5.27028 11.0766 2.86881 13.541 2.87134 16.5786C2.87185 17.1892 2.96946 17.7765 3.14919 18.3251C3.22517 18.557 3.26316 18.673 3.27566 18.7522C3.28871 18.8349 3.29102 18.8814 3.28626 18.965C3.28169 19.0451 3.26173 19.1356 3.22182 19.3166L2.61278 22.0788L5.60724 21.6673C5.77068 21.6449 5.8524 21.6336 5.92378 21.6341C5.99893 21.6345 6.03882 21.6385 6.11253 21.6532C6.18254 21.6671 6.28662 21.7037 6.4948 21.777C7.04328 21.97 7.63188 22.0746 8.24435 22.0741Z" stroke="#414651" stroke-width="2" stroke-linecap="round" stroke-linejoin="round"/>
</g>
</svg>
