<svg width="25" height="25" viewBox="0 0 25 25" fill="none" xmlns="http://www.w3.org/2000/svg">
<g id="chart-breakout-square">
<path id="Icon" d="M11.2632 3.26807L8.06322 3.27074C6.38307 3.27215 5.54299 3.27285 4.90153 3.60036C4.33728 3.88845 3.87872 4.34778 3.59157 4.9125C3.26513 5.55451 3.26583 6.39459 3.26723 8.07475L3.27424 16.4747C3.27564 18.1549 3.27634 18.995 3.60386 19.6364C3.89195 20.2007 4.35127 20.6592 4.916 20.9464C5.55801 21.2728 6.39808 21.2721 8.07824 21.2707L16.4782 21.2637C18.1584 21.2623 18.9985 21.2616 19.6399 20.9341C20.2042 20.646 20.6627 20.1867 20.9499 19.622C21.2763 18.98 21.2756 18.1399 21.2742 16.4597L21.2716 13.2597M12.2674 8.26724L16.2674 8.2639L16.2707 12.2639M15.7636 3.76432L15.7624 2.26432M19.7039 4.82169L20.7636 3.76015M20.7781 8.76014L22.2781 8.75889M3.27186 13.6218C3.92388 13.722 4.59186 13.7736 5.27199 13.7731C9.65835 13.7694 13.5355 11.5938 15.8871 8.26422" stroke="#414651" stroke-width="2" stroke-linecap="round" stroke-linejoin="round"/>
</g>
</svg>
